<?xml version="1.0" encoding="UTF-8"?>
<svg width="192" height="192" viewBox="0 0 192 192" fill="none" xmlns="http://www.w3.org/2000/svg">
  <path d="M96 176C140.183 176 176 140.183 176 96C176 51.8172 140.183 16 96 16C51.8172 16 16 51.8172 16 96C16 140.183 51.8172 176 96 176Z" fill="#E8461D"/>
  <path d="M96 84C89.3726 84 84 89.3726 84 96C84 102.627 89.3726 108 96 108C102.627 108 108 102.627 108 96C108 89.3726 102.627 84 96 84Z" fill="white"/>
  <path d="M96 48C69.4903 48 48 69.4903 48 96C48 122.51 69.4903 144 96 144C122.51 144 144 122.51 144 96C144 69.4903 122.51 48 96 48ZM96 124C80.536 124 68 111.464 68 96C68 80.536 80.536 68 96 68C111.464 68 124 80.536 124 96C124 111.464 111.464 124 96 124Z" fill="white"/>
</svg> 