<?xml version="1.0" encoding="UTF-8"?>
<svg width="192" height="192" viewBox="0 0 192 192" fill="none" xmlns="http://www.w3.org/2000/svg">
  <path d="M141.333 77.3333V58.6667C130.667 58.6667 121.333 54.6667 114.667 48C107.333 40.6667 102.667 30.6667 102.667 20H84V124C84 132 77.3333 138.667 69.3333 138.667C61.3333 138.667 54.6667 132 54.6667 124C54.6667 116 61.3333 109.333 69.3333 109.333C71.3333 109.333 73.3333 109.333 74.6667 110.667V92C73.3333 91.3333 70.6667 90.6667 69.3333 90.6667C50.6667 90.6667 36 105.333 36 124C36 142.667 50.6667 157.333 69.3333 157.333C88 157.333 102.667 142.667 102.667 124V89.3333C109.333 94.6667 118 98 126.667 98V77.3333H141.333Z" fill="black"/>
</svg> 